# xmcd CD database file
#
# Track frame offsets:
#	150
#	15803
#	33066
#	44093
#	57689
#	69205
#	85309
#	102377
#	116557
#	136746
#	152224
#	164502
#
# Disc length: 2402 seconds
#
# Revision: 1
# Processed by: cddbd v1.5.2PL0 Copyright (c) Steve Scherf et al.
# Submitted via: CDex 1.51
#
DISCID=9809600c
DTITLE=Podjezd - Laskam ...
DYEAR=2006
DGENRE=Bluegrass
TTITLE0=Vytahni nuz z meho srdce
TTITLE1=Laskam
TTITLE2=Uz nejsem hloupa
TTITLE3=Strong Enough
TTITLE4=Cis ustlana do ruzi
TTITLE5=Duni zvon
TTITLE6=Smich
TTITLE7=Zakony lasky
TTITLE8=Velky cerny havran
TTITLE9=Cekani na zazrak
TTITLE10=Roman
TTITLE11=Zrcadlo snu
EXTD=YEAR: 2006
EXTT0=
EXTT1=
EXTT2=
EXTT3=
EXTT4=
EXTT5=
EXTT6=
EXTT7=
EXTT8=
EXTT9=
EXTT10=
EXTT11=
PLAYORDER=
